<?xml version="1.0" encoding="utf-8"?>
<svg xmlns="http://www.w3.org/2000/svg" viewBox="16.485 41.848 415.031 470.152" width="415.031px" height="470.152px"><path d="M 141.736 58.102 C 146.738 48.093 157.02 41.848 168.23 41.848 L 279.769 41.848 C 290.979 41.848 301.262 48.093 306.265 58.102 L 312.935 71.233 L 401.871 71.233 C 418.268 71.233 431.516 84.364 431.516 100.617 C 431.516 116.871 418.268 130.002 401.871 130.002 L 46.13 130.002 C 29.733 130.002 16.485 116.871 16.485 100.617 C 16.485 84.364 29.733 71.233 46.13 71.233 L 135.064 71.233 L 141.736 58.102 Z M 46.13 159.387 L 401.871 159.387 L 401.871 453.231 C 401.871 485.646 375.283 512 342.58 512 L 105.42 512 C 72.717 512 46.13 485.646 46.13 453.231 L 46.13 159.387 Z M 135.064 218.156 C 126.913 218.156 120.242 224.767 120.242 232.847 L 120.242 438.538 C 120.242 446.618 126.913 453.231 135.064 453.231 C 143.218 453.231 149.888 446.618 149.888 438.538 L 149.888 232.847 C 149.888 224.767 143.218 218.156 135.064 218.156 Z M 224 218.156 C 215.847 218.156 209.177 224.767 209.177 232.847 L 209.177 438.538 C 209.177 446.618 215.847 453.231 224 453.231 C 232.152 453.231 238.823 446.618 238.823 438.538 L 238.823 232.847 C 238.823 224.767 232.152 218.156 224 218.156 Z M 312.935 218.156 C 304.783 218.156 298.112 224.767 298.112 232.847 L 298.112 438.538 C 298.112 446.618 304.783 453.231 312.935 453.231 C 321.088 453.231 327.758 446.618 327.758 438.538 L 327.758 232.847 C 327.758 224.767 321.088 218.156 312.935 218.156 Z" style="fill: rgb(255, 0, 0); transform-origin: 224.001px 276.924px;" id="object-1"/></svg>