<?xml version="1.0" encoding="utf-8"?>
<svg xmlns="http://www.w3.org/2000/svg" viewBox="0 0 448 512" xmlns:bx="https://boxy-svg.com" width="448px" height="512px"><defs><bx:export><bx:file format="svg" path="Aberto.svg"/></bx:export></defs><path d="M 43.724 161.226 L 400.083 161.226 L 400.083 452.908 C 400.083 485.084 373.448 511.244 340.689 511.244 L 103.117 511.244 C 70.358 511.244 43.724 485.084 43.724 452.908 L 43.724 161.226 Z M 132.813 219.562 C 124.646 219.562 117.965 226.124 117.965 234.145 L 117.965 438.324 C 117.965 446.345 124.646 452.908 132.813 452.908 C 140.98 452.908 147.661 446.345 147.661 438.324 L 147.661 234.145 C 147.661 226.124 140.98 219.562 132.813 219.562 Z M 221.902 219.562 C 213.737 219.562 207.055 226.124 207.055 234.145 L 207.055 438.324 C 207.055 446.345 213.737 452.908 221.902 452.908 C 230.069 452.908 236.751 446.345 236.751 438.324 L 236.751 234.145 C 236.751 226.124 230.069 219.562 221.902 219.562 Z M 310.993 219.562 C 302.827 219.562 296.144 226.124 296.144 234.145 L 296.144 438.324 C 296.144 446.345 302.827 452.908 310.993 452.908 C 319.159 452.908 325.841 446.345 325.841 438.324 L 325.841 234.145 C 325.841 226.124 319.159 219.562 310.993 219.562 Z" style="transform-box: fill-box; transform-origin: 50% 50%;"/><path d="M 153.425 13.158 C 160.883 4.834 172.467 1.466 183.312 4.32 L 291.239 32.726 C 302.085 35.58 310.402 44.185 312.624 55.056 L 315.643 69.346 L 401.697 91.994 C 417.564 96.169 426.947 112.132 422.696 127.717 C 418.445 143.301 402.191 152.517 386.325 148.342 L 42.108 57.75 C 26.243 53.575 16.859 37.611 21.111 22.027 C 25.362 6.442 41.615 -2.774 57.482 1.402 L 143.536 24.05 L 153.425 13.158 Z" style="stroke-width: 1; transform-origin: 186.355px 224.745px;"/></svg>