<?xml version="1.0" encoding="utf-8"?>
<svg xmlns="http://www.w3.org/2000/svg" viewBox="22.1844 1.153 403.6313 510.847" width="403.631px" height="510.847px" preserveAspectRatio="none"><g transform="matrix(1, 0, 0, 1, -336.80831909179693, 5.102001190185561)" style="" id="object-0"><path d="M 382.629 156.88 L 738.988 156.88 L 738.988 448.562 C 738.988 480.738 712.353 506.898 679.594 506.898 L 442.022 506.898 C 409.263 506.898 382.629 480.738 382.629 448.562 L 382.629 156.88 Z M 471.718 215.216 C 463.551 215.216 456.87 221.778 456.87 229.799 L 456.87 433.978 C 456.87 441.999 463.551 448.562 471.718 448.562 C 479.885 448.562 486.566 441.999 486.566 433.978 L 486.566 229.799 C 486.566 221.778 479.885 215.216 471.718 215.216 Z M 560.807 215.216 C 552.642 215.216 545.96 221.778 545.96 229.799 L 545.96 433.978 C 545.96 441.999 552.642 448.562 560.807 448.562 C 568.974 448.562 575.656 441.999 575.656 433.978 L 575.656 229.799 C 575.656 221.778 568.974 215.216 560.807 215.216 Z M 649.898 215.216 C 641.732 215.216 635.049 221.778 635.049 229.799 L 635.049 433.978 C 635.049 441.999 641.732 448.562 649.898 448.562 C 658.064 448.562 664.746 441.999 664.746 433.978 L 664.746 229.799 C 664.746 221.778 658.064 215.216 649.898 215.216 Z" style="stroke-width: 1; transform-box: fill-box; transform-origin: 50% 50%; fill: rgb(255, 0, 0);"/><path d="M 492.33 8.812 C 499.788 0.488 511.372 -2.88 522.217 -0.026 L 630.144 28.38 C 640.99 31.234 649.307 39.839 651.529 50.71 L 654.548 65 L 740.602 87.648 C 756.469 91.823 765.852 107.786 761.601 123.371 C 757.35 138.955 741.096 148.171 725.23 143.996 L 381.013 53.404 C 365.148 49.229 355.764 33.265 360.016 17.681 C 364.267 2.096 380.52 -7.12 396.387 -2.944 L 482.441 19.704 L 492.33 8.812 Z" style="stroke-width: 1; transform-origin: 525.26px 220.399px; fill: rgb(255, 0, 0);"/></g></svg>